<?xml version="1.0" encoding="UTF-8" standalone="no"?><!DOCTYPE svg PUBLIC "-//W3C//DTD SVG 1.1//EN" "http://www.w3.org/Graphics/SVG/1.1/DTD/svg11.dtd"><svg width="100%" height="100%" viewBox="0 0 842 533" version="1.1" xmlns="http://www.w3.org/2000/svg" xmlns:xlink="http://www.w3.org/1999/xlink" xml:space="preserve" xmlns:serif="http://www.serif.com/" style="fill-rule:evenodd;clip-rule:evenodd;stroke-linejoin:round;stroke-miterlimit:1.41421;"><rect id="Artboard1" x="0" y="0" width="841.89" height="532.403" style="fill:none;"/><clipPath id="_clip1"><rect x="0" y="0" width="841.89" height="532.403"/></clipPath><g clip-path="url(#_clip1)"><rect x="0" y="0" width="841.89" height="532.482" style="fill:none;"/><clipPath id="_clip2"><rect x="0" y="0" width="841.89" height="532.482"/></clipPath><g clip-path="url(#_clip2)"><g id="Layer-1" serif:id="Layer 1"><path d="M482.566,482.201l-4.317,0c-3.304,0 -5.986,-2.915 -5.986,-6.511l-0.084,-838.568c0,-3.598 2.682,-6.512 5.987,-6.512l4.316,0c3.307,0 5.987,2.914 5.987,6.512l0.083,838.568c0,3.596 -2.68,6.511 -5.986,6.511" style="fill:#f05351;fill-rule:nonzero;"/><path d="M484.608,129.969c0,2.343 -1.898,4.243 -4.242,4.243c-2.343,0 -4.243,-1.9 -4.243,-4.243c0,-2.342 1.9,-4.242 4.243,-4.242c2.344,0 4.242,1.9 4.242,4.242" style="fill:#fff;fill-rule:nonzero;"/><path d="M484.608,199.135c0,2.342 -1.898,4.242 -4.242,4.242c-2.343,0 -4.243,-1.9 -4.243,-4.242c0,-2.343 1.9,-4.243 4.243,-4.243c2.344,0 4.242,1.9 4.242,4.243" style="fill:#fff;fill-rule:nonzero;"/><path d="M484.608,268.301c0,2.343 -1.898,4.242 -4.242,4.242c-2.343,0 -4.243,-1.899 -4.243,-4.242c0,-2.343 1.9,-4.243 4.243,-4.243c2.344,0 4.242,1.9 4.242,4.243" style="fill:#fff;fill-rule:nonzero;"/><path d="M484.608,337.465c0,2.345 -1.898,4.243 -4.242,4.243c-2.343,0 -4.243,-1.898 -4.243,-4.243c0,-2.343 1.9,-4.242 4.243,-4.242c2.344,0 4.242,1.899 4.242,4.242" style="fill:#fff;fill-rule:nonzero;"/><path d="M484.608,406.632c0,2.342 -1.898,4.242 -4.242,4.242c-2.343,0 -4.243,-1.9 -4.243,-4.242c0,-2.343 1.9,-4.243 4.243,-4.243c2.344,0 4.242,1.9 4.242,4.243" style="fill:#fff;fill-rule:nonzero;"/><path d="M484.608,471.678c0,2.343 -1.898,4.243 -4.242,4.243c-2.343,0 -4.243,-1.9 -4.243,-4.243c0,-2.343 1.9,-4.243 4.243,-4.243c2.344,0 4.242,1.9 4.242,4.243" style="fill:#fff;fill-rule:nonzero;"/><path d="M484.608,60.804c0,2.343 -1.898,4.243 -4.242,4.243c-2.343,0 -4.243,-1.9 -4.243,-4.243c0,-2.343 1.9,-4.243 4.243,-4.243c2.344,0 4.242,1.9 4.242,4.243" style="fill:#fff;fill-rule:nonzero;"/><path d="M656.82,344.261c0,17.892 4.113,31.936 12.337,42.136c8.221,10.203 20.368,15.3 36.437,15.3c16.07,0 28.171,-5.085 36.301,-15.25c8.128,-10.172 12.193,-24.232 12.193,-42.186c0,-18.33 -4.097,-32.55 -12.289,-42.657c-8.192,-10.104 -20.229,-15.161 -36.11,-15.161c-15.882,0 -27.997,5.057 -36.347,15.161c-8.347,10.107 -12.522,24.327 -12.522,42.657m114.689,0c0,10.608 -1.461,20.306 -4.38,29.093c-2.92,8.79 -7.125,16.341 -12.616,22.647c-5.496,6.31 -12.417,11.205 -20.762,14.69c-8.352,3.482 -17.737,5.226 -28.157,5.226c-14.059,0 -26.098,-2.997 -36.108,-8.992c-10.016,-5.995 -17.515,-14.344 -22.506,-25.046c-4.991,-10.704 -7.485,-23.274 -7.485,-37.712c0,-22.285 5.807,-39.859 17.419,-52.731c11.612,-12.869 27.872,-19.305 48.775,-19.305c20.591,0 36.707,6.484 48.353,19.449c11.644,12.963 17.467,30.522 17.467,52.681" style="fill:#154665;fill-rule:nonzero;"/><path d="M438.288,115.082l12.711,0c2.289,0 3.882,2.273 3.101,4.424l-48.957,134.839l-16.95,0l-50.376,-139.263l13.788,0c2.177,0 4.116,1.375 4.835,3.428l29.776,84.895c4.017,11.488 7.503,22.314 10.454,32.486c0.94,-4.708 4.454,-15.63 10.545,-32.767c9.792,-28.062 20.149,-57.407 31.073,-88.042" style="fill:#154665;fill-rule:nonzero;"/><path d="M590.445,196.532c-13.247,-38.48 -20.561,-60.106 -21.939,-64.877l-22.882,64.877l44.821,0Zm21.562,57.813l-15.214,-41.25c-0.647,-1.75 -2.315,-2.911 -4.177,-2.911l-52.451,0l-16.857,44.161l-16.573,0l53.485,-139.545l13.169,0c2.101,0 3.981,1.307 4.713,3.279l48.935,131.615c0.838,2.255 -0.828,4.651 -3.233,4.651l-11.797,0Z" style="fill:#154665;fill-rule:nonzero;"/><path d="M133.576,286.54c-10.484,0 -19.506,2.54 -27.071,7.627c-7.565,5.084 -13.199,11.927 -16.903,20.528c-3.703,8.601 -5.555,18.489 -5.555,29.662c0,8.345 1.004,15.958 3.013,22.831c2.01,6.873 5.023,12.899 9.04,18.08c4.017,5.178 9.243,9.195 15.679,12.053c6.432,2.855 13.823,4.284 22.173,4.284c10.736,0 21.845,-2.793 33.333,-8.381l1.88,9.527c0.529,2.684 -0.796,5.394 -3.247,6.607c-8.842,4.372 -20.123,6.559 -33.848,6.559c-10.485,0 -19.884,-1.744 -28.201,-5.226c-8.32,-3.484 -15.193,-8.411 -20.622,-14.783c-5.43,-6.372 -9.557,-13.967 -12.383,-22.787c-2.824,-8.819 -4.236,-18.627 -4.236,-29.423c0,-10.423 1.536,-20.027 4.613,-28.818c3.075,-8.786 7.422,-16.333 13.041,-22.643c5.618,-6.31 12.632,-11.221 21.045,-14.735c8.412,-3.516 17.765,-5.275 28.06,-5.275c13.999,0 26.032,2.768 36.103,8.306c1.974,1.086 2.718,3.556 1.741,5.588l-4.698,9.74c-10.297,-6.212 -21.281,-9.321 -32.957,-9.321" style="fill:#154665;fill-rule:nonzero;"/><path d="M207.056,344.261c0,17.892 4.113,31.936 12.337,42.136c8.222,10.203 20.369,15.3 36.439,15.3c16.07,0 28.169,-5.085 36.299,-15.25c8.13,-10.172 12.195,-24.232 12.195,-42.186c0,-18.33 -4.097,-32.55 -12.289,-42.657c-8.194,-10.104 -20.229,-15.161 -36.111,-15.161c-15.881,0 -27.998,5.057 -36.346,15.161c-8.349,10.107 -12.524,24.327 -12.524,42.657m114.689,0c0,10.608 -1.461,20.306 -4.38,29.093c-2.918,8.79 -7.124,16.341 -12.616,22.647c-5.494,6.31 -12.415,11.205 -20.762,14.69c-8.349,3.482 -17.736,5.226 -28.155,5.226c-14.061,0 -26.098,-2.997 -36.11,-8.992c-10.014,-5.995 -17.515,-14.344 -22.506,-25.046c-4.991,-10.704 -7.485,-23.274 -7.485,-37.712c0,-22.285 5.807,-39.859 17.419,-52.731c11.614,-12.869 27.872,-19.305 48.776,-19.305c20.59,0 36.706,6.484 48.352,19.449c11.644,12.963 17.467,30.522 17.467,52.681" style="fill:#154665;fill-rule:nonzero;"/><path d="M436.882,344.543c0,-19.458 -5.022,-33.617 -15.066,-42.465c-10.044,-8.853 -24.669,-13.279 -43.878,-13.279l-21.846,0l0,110.829l24.576,0c18.329,0 32.282,-4.629 41.854,-13.889c9.573,-9.261 14.36,-22.99 14.36,-41.196m17.42,-0.471c0,22.662 -6.436,39.955 -19.303,51.883c-12.87,11.927 -30.822,17.892 -53.86,17.892l-41.336,0l0,-139.268l38.606,0c11.612,0 22.001,1.367 31.166,4.097c9.164,2.732 17.122,6.875 23.869,12.43c6.747,5.556 11.914,12.808 15.492,21.752c3.578,8.944 5.366,19.349 5.366,31.214" style="fill:#154665;fill-rule:nonzero;"/><path d="M573.213,415.917c-10.61,0 -20.137,-1.778 -28.578,-5.32c-8.445,-3.546 -15.412,-8.507 -20.903,-14.877c-5.494,-6.371 -9.699,-13.923 -12.618,-22.647c-2.92,-8.725 -4.379,-18.299 -4.379,-28.716c0,-14.065 2.667,-26.493 8.003,-37.291c5.336,-10.794 13.278,-19.303 23.825,-25.515c10.544,-6.216 23.036,-9.324 37.474,-9.324c13.997,0 26.505,2.784 37.527,8.352c2.638,1.331 3.765,4.5 2.528,7.182l-4.087,8.854c-11.674,-6.715 -23.601,-10.075 -35.778,-10.075c-8.475,0 -16.057,1.458 -22.742,4.378c-6.685,2.919 -12.147,6.968 -16.385,12.147c-4.237,5.178 -7.469,11.271 -9.697,18.267c-2.229,7 -3.342,14.673 -3.342,23.025c0,17.7 4.41,31.683 13.228,41.946c8.821,10.264 21.832,15.394 39.032,15.394c9.792,0 19.74,-1.978 29.849,-5.933l0,-39.733l-32.865,0l0.567,-14.221l42.234,0c2.935,0 5.316,2.381 5.316,5.317l0,58.34c-7.91,3.763 -15.551,6.447 -22.927,8.05c-7.377,1.6 -15.805,2.4 -25.282,2.4" style="fill:#154665;fill-rule:nonzero;"/><path d="M532.373,475.921l-10.211,-33.867l4.144,0l8.38,29.151l8.381,-28.532l4.466,0l8.128,28.552l8.449,-29.171l4.145,0l-10.349,33.867l-4.328,0l-8.244,-28.463l-8.655,28.463l-4.306,0Z" style="fill:#f05351;fill-rule:nonzero;"/><path d="M572.239,475.921l0,-33.867l19.417,0l-0.16,3.504l-15.296,0l0,11.084l14.54,0l0,3.456l-14.54,0l0,12.318l15.801,0l-0.181,3.505l-19.581,0Z" style="fill:#f05351;fill-rule:nonzero;"/><path d="M602.373,459.8l0,12.869l7.076,0c2.87,0 5.021,-0.528 6.458,-1.592c1.435,-1.06 2.151,-2.712 2.151,-4.957c0,-2.335 -0.774,-3.971 -2.325,-4.911c-1.548,-0.94 -3.963,-1.409 -7.248,-1.409l-6.112,0Zm0,-3.183l7.26,0c2.365,0 4.153,-0.413 5.358,-1.237c1.205,-0.824 1.808,-2.289 1.808,-4.396c0,-2.12 -0.72,-3.582 -2.163,-4.385c-1.443,-0.802 -3.684,-1.203 -6.721,-1.203l-5.542,0l0,11.221Zm-3.961,-14.563l9.708,0c4.353,0 7.577,0.664 9.677,1.991c2.097,1.329 3.147,3.444 3.147,6.344c0,0.427 -0.026,0.852 -0.08,1.271c-0.054,0.421 -0.192,0.958 -0.411,1.613c-0.224,0.658 -0.525,1.257 -0.906,1.8c-0.381,0.54 -0.942,1.083 -1.682,1.624c-0.741,0.543 -1.607,0.974 -2.601,1.295c2.277,0.427 4.001,1.389 5.177,2.884c1.175,1.496 1.764,3.296 1.764,5.404c0,3.069 -1.004,5.444 -3.011,7.122c-2.01,1.68 -4.997,2.518 -8.964,2.518l-11.818,0l0,-33.866Z" style="fill:#f05351;fill-rule:nonzero;"/><path d="M627.22,470.333c3.526,1.74 7.304,2.612 11.335,2.612c4.959,0 7.439,-2.259 7.439,-6.779c0,-1.464 -0.391,-2.652 -1.179,-3.56c-0.784,-0.908 -2.217,-1.624 -4.292,-2.141l-6.731,-1.696c-5.145,-1.295 -7.717,-4.043 -7.717,-8.244c0,-3.218 1.105,-5.611 3.32,-7.176c2.211,-1.566 5.273,-2.348 9.182,-2.348c2.045,0 3.961,0.221 5.747,0.664c1.786,0.443 3.283,1.038 4.488,1.786l-1.145,3.227c-1.024,-0.563 -2.377,-1.068 -4.063,-1.509c-1.689,-0.443 -3.393,-0.664 -5.119,-0.664c-5.526,0 -8.289,1.915 -8.289,5.747c0,1.297 0.423,2.339 1.271,3.125c0.848,0.786 2.117,1.385 3.813,1.798l6.434,1.559c2.748,0.656 4.831,1.704 6.252,3.146c1.419,1.443 2.129,3.493 2.129,6.149c0,3.45 -1.057,6.048 -3.173,7.796c-2.115,1.749 -4.987,2.621 -8.621,2.621c-2.717,0 -5.134,-0.278 -7.245,-0.833c-2.116,-0.558 -3.792,-1.219 -5.029,-1.983l1.193,-3.297Z" style="fill:#f05351;fill-rule:nonzero;"/><path d="M666.535,475.921l-3.985,0l0,-30.363l-10.419,0l0,-3.504l24.823,0l0,3.504l-10.419,0l0,30.363Z" style="fill:#f05351;fill-rule:nonzero;"/><path d="M683.548,458.999c0,4.351 1,7.767 2.999,10.247c2,2.481 4.953,3.72 8.86,3.72c3.91,0 6.853,-1.235 8.829,-3.708c1.975,-2.474 2.967,-5.892 2.967,-10.259c0,-4.456 -0.998,-7.914 -2.991,-10.373c-1.992,-2.458 -4.917,-3.687 -8.781,-3.687c-3.861,0 -6.808,1.229 -8.838,3.687c-2.029,2.459 -3.045,5.917 -3.045,10.373m27.892,0c0,2.581 -0.357,4.939 -1.068,7.076c-0.708,2.138 -1.732,3.972 -3.067,5.508c-1.337,1.533 -3.019,2.724 -5.049,3.572c-2.031,0.846 -4.312,1.269 -6.849,1.269c-3.418,0 -6.343,-0.728 -8.78,-2.185c-2.435,-1.458 -4.258,-3.488 -5.472,-6.092c-1.215,-2.602 -1.82,-5.66 -1.82,-9.172c0,-5.418 1.411,-9.692 4.237,-12.821c2.824,-3.129 6.777,-4.696 11.859,-4.696c5.007,0 8.929,1.577 11.76,4.73c2.832,3.153 4.249,7.423 4.249,12.811" style="fill:#f05351;fill-rule:nonzero;"/><path d="M721.423,445.214l0,11.448c0.624,0 1.919,0.016 3.881,0.048c1.962,0.03 3.478,0.044 4.546,0.044c2.915,0 4.945,-0.483 6.088,-1.453c1.148,-0.97 1.72,-2.506 1.72,-4.614c0,-1.848 -0.55,-3.22 -1.648,-4.12c-1.1,-0.9 -2.939,-1.353 -5.52,-1.353l-9.067,0Zm21.707,30.707l-4.58,0l-4.671,-10.626c-1.267,-2.852 -2.076,-4.572 -2.427,-5.153c-1.113,0.08 -2.434,0.116 -3.961,0.116l-6.068,-0.184l0,15.847l-4.053,0l0,-34.256l10.829,0c1.252,0 2.359,0.03 3.323,0.092c0.96,0.062 1.918,0.172 2.872,0.334c0.956,0.159 1.784,0.381 2.484,0.662c0.703,0.281 1.359,0.649 1.97,1.098c0.61,0.453 1.103,0.989 1.478,1.616c0.372,0.625 0.667,1.369 0.88,2.231c0.214,0.864 0.322,1.836 0.322,2.92c0,2.137 -0.561,3.977 -1.685,5.519c-1.121,1.543 -2.711,2.61 -4.773,3.205c0,0.032 0.152,0.305 0.457,0.824c0.307,0.521 0.669,1.158 1.088,1.912c0.419,0.756 0.744,1.387 0.974,1.89l5.541,11.953Z" style="fill:#f05351;fill-rule:nonzero;"/><path d="M748.647,475.921l0,-33.867l19.417,0l-0.16,3.504l-15.296,0l0,11.084l14.54,0l0,3.456l-14.54,0l0,12.318l15.801,0l-0.182,3.505l-19.58,0Z" style="fill:#f05351;fill-rule:nonzero;"/></g></g></g></svg>