<?xml version="1.0" encoding="utf-8"?>
<!-- Generator: Adobe Illustrator 16.0.0, SVG Export Plug-In . SVG Version: 6.00 Build 0)  -->
<!DOCTYPE svg PUBLIC "-//W3C//DTD SVG 1.1//EN" "http://www.w3.org/Graphics/SVG/1.1/DTD/svg11.dtd">
<svg version="1.1" id="Capa_1" xmlns="http://www.w3.org/2000/svg" xmlns:xlink="http://www.w3.org/1999/xlink" x="0px" y="0px"
	 width="916.667px" height="155.263px" viewBox="0 0 916.667 155.263" enable-background="new 0 0 916.667 155.263"
	 xml:space="preserve">
<g>
	<path fill="#D40028" d="M13.939,113.595l4.165-1.042c5.058-1.188,6.545-1.785,6.545-11.9v-67.39
		c0-10.118-1.487-10.712-6.545-11.903l-4.165-1.042v-4.909h55.34v4.909l-5.058,1.042c-5.354,1.191-6.545,1.786-6.545,11.903v65.306
		c0,10.863,0.595,12.645,11.307,12.645c11.157,0,13.686-1.781,18.297-9.372c3.57-5.801,6.397-11.006,11.157-22.163h5.356
		l-2.679,38.828H13.939V113.595z"/>
	<path fill="#D40028" d="M104.087,100.653c0-13.536,9.223-19.638,29.751-24.695l11.754-2.976V61.229
		c0-13.539-2.827-16.068-8.926-16.068c-3.422,0-4.611,0.893-4.909,5.06c-0.744,11.456-5.057,14.876-13.539,14.876
		c-6.99,0-11.305-3.272-11.305-10.263c0-9.672,10.561-16.365,35.852-16.365c19.042,0,31.538,5.503,31.538,21.125v38.681
		c0,6.394,0.447,8.477,3.272,9.964c1.934,1.042,5.355,1.487,6.845,1.487v4.462c-3.125,2.382-9.375,6.1-19.936,6.1
		c-9.225,0-15.175-3.126-17.257-9.368h-0.594c-4.018,4.76-9.819,9.368-20.084,9.368
		C112.417,120.288,104.087,113.002,104.087,100.653z M145.593,104.966V81.314l-4.463,0.297c-6.547,0.445-9.074,3.569-9.074,13.984
		c0,10.266,3.867,12.346,8.181,12.346C142.915,107.941,144.551,106.903,145.593,104.966z"/>
	<path fill="#D40028" d="M210.897,113.595l4.165-1.042c5.058-1.188,6.545-1.785,6.545-11.9v-67.39
		c0-10.118-1.487-10.712-6.545-11.903l-4.165-1.042v-4.909h52.216c32.729,0,45.672,9.373,45.672,27.82
		c0,13.686-5.356,20.679-18.299,24.546v0.594c5.207,12.794,14.28,29.755,22.166,41.063c1.636,2.378,2.529,2.378,5.505,3.42
		l2.081,0.743v4.911h-38.678c-6.844-9.822-16.511-30.649-20.828-43.441c-1.932,0-5.058-0.149-6.246-0.298v25.886
		c0,10.115,1.338,10.712,6.099,11.9l4.165,1.042v4.911h-53.852V113.595z M275.608,45.609c0-16.661-2.529-22.91-13.239-22.91
		c-3.571,0-6.843,0.595-7.885,1.042v44.332c1.188,0.148,2.678,0.447,6.246,0.447C270.849,68.52,275.608,63.61,275.608,45.609z"/>
	<path fill="#D40028" d="M318.302,79.379c0-26.927,20.529-40.91,40.314-40.91c21.72,0,35.258,10.412,36.002,37.34h-48.497
		c0.744,24.1,9.372,29.603,24.695,29.603c8.181,0,15.322-2.381,21.123-5.355v5.208c-5.95,7.142-17.702,15.023-33.323,15.023
		C331.839,120.288,318.302,105.412,318.302,79.379z M346.122,69.709l20.826-1.34c0-18-2.231-23.503-9.817-23.503
		C351.179,44.866,346.567,50.965,346.122,69.709z"/>
	<path fill="#D40028" d="M393.724,144.837l2.826-0.748c5.951-1.635,6.25-2.083,6.25-8.923V59.743c0-6.544-0.596-7.141-5.058-10.563
		l-4.761-3.57v-3.422l35.852-3.718l1.935,1.338l-0.298,9.817h0.744c6.397-5.801,14.134-11.155,25.142-11.155
		c13.982,0,29.009,10.116,29.009,36.596c0,32.431-19.043,45.223-43.588,45.223c-2.827,0-7.587-0.445-10.562-1.189
		c0,0,0.298,3.423,0.298,8.775v7.293c0,6.99,0.296,7.587,5.802,8.775l3.868,0.896v4.759h-47.456V144.837z M456.055,81.46
		c0-21.272-5.354-27.668-15.023-27.668c-4.613,0-7.736,1.189-9.521,1.784v52.962c1.935,2.676,5.802,5.058,10.265,5.058
		C450.848,113.595,456.055,109.281,456.055,81.46z"/>
	<path fill="#D40028" d="M494.289,100.355v-41.06c0-6.545-0.151-7.291-5.058-10.563l-4.765-3.123v-3.422l36.598-3.718l1.933,1.338
		v53.258c0,8.923,3.126,11.455,8.78,11.455c4.461,0,8.032-1.193,10.561-1.936v-43.29c0-6.545-0.445-7.587-5.058-10.563l-4.764-3.123
		v-3.422l36.598-3.718l1.937,1.338v59.358c0,7.737,0.147,8.477,5.054,10.409l3.722,1.491v4.164l-34.809,5.058l-1.937-1.336
		l0.299-10.414h-0.744c-8.035,6.1-16.808,11.75-29.006,11.75C502.022,120.288,494.289,113.595,494.289,100.355z M518.83,29.839
		l17.408-17.406c2.827-2.825,5.802-4.314,9.074-4.314c5.36,0,9.074,5.06,9.074,10.416c0,3.867-2.231,8.032-7.587,9.074
		l-26.626,5.207L518.83,29.839z"/>
	<path fill="#D40028" d="M585.623,110.323V27.014c0-7.885-0.143-8.926-4.755-11.307l-5.058-2.529V9.161l37.043-3.272l1.933,1.34
		c0,0-0.445,7.438-0.445,17.406v9.074c0,8.927-0.45,15.471-0.45,15.471h0.744c5.653-5.207,13.539-10.71,24.549-10.71
		c13.981,0,29.007,10.116,29.007,36.596c0,32.431-19.336,45.223-45.373,45.223C606.309,120.288,594.705,116.716,585.623,110.323z
		 M638.886,81.46c0-21.272-5.356-27.668-15.026-27.668c-4.612,0-7.737,1.189-9.519,1.784v52.962
		c1.932,2.676,5.797,5.058,10.262,5.058C633.681,113.595,638.886,109.281,638.886,81.46z"/>
	<path fill="#D40028" d="M668.043,113.743l2.823-0.74c6.398-1.638,6.696-2.083,6.696-8.93V27.014c0-7.885-0.298-8.778-5.209-11.307
		l-5.058-2.529V9.161l37.488-3.272l1.937,1.34c0,0-0.445,7.438-0.445,17.406v79.438c0,6.993,0.298,7.292,6.691,8.93l2.831,0.74
		v4.764h-47.755V113.743z"/>
	<path fill="#D40028" d="M713.857,113.743l2.827-0.74c5.953-1.638,6.247-2.083,6.247-8.93v-44.33c0-6.544-0.597-7.141-5.058-10.563
		l-4.756-3.57v-3.422l37.19-3.718l1.932,1.338c-0.449,6.99-0.592,11.752-0.592,18.595v45.67c0,6.993,0.445,7.438,6.243,8.93
		l2.831,0.74v4.764h-46.865V113.743z M721.298,19.427c0-8.479,6.695-14.133,15.319-14.133c8.629,0,15.325,5.654,15.325,14.133
		c0,8.479-6.696,14.132-15.325,14.132C727.993,33.559,721.298,27.906,721.298,19.427z"/>
	<path fill="#D40028" d="M759.975,79.379c0-30.647,24.843-40.91,47.159-40.91c15.172,0,25.288,4.76,25.288,14.729
		c0,6.841-4.461,11.601-11.452,11.601c-8.931,0-11.603-6.545-12.197-13.536c-0.445-5.06-1.193-5.95-5.954-5.95
		c-6.246,0-14.577,3.272-14.577,27.074c0,21.275,5.948,33.024,22.907,33.024c8.78,0,14.435-2.381,20.383-5.204v5.204
		c-4.167,5.953-15.325,14.876-32.729,14.876C773.959,120.288,759.975,104.668,759.975,79.379z"/>
	<path fill="#D40028" d="M832.422,100.653c0-13.536,9.226-19.638,29.75-24.695l11.755-2.976V61.229
		c0-13.539-2.823-16.068-8.924-16.068c-3.423,0-4.612,0.893-4.909,5.06c-0.745,11.456-5.059,14.876-13.539,14.876
		c-6.991,0-11.306-3.272-11.306-10.263c0-9.672,10.561-16.365,35.854-16.365c19.037,0,31.534,5.503,31.534,21.125v38.681
		c0,6.394,0.45,8.477,3.273,9.964c1.933,1.042,5.355,1.487,6.848,1.487v4.462c-3.125,2.382-9.377,6.1-19.938,6.1
		c-9.226,0-15.173-3.126-17.257-9.368h-0.597c-4.016,4.76-9.816,9.368-20.08,9.368C840.752,120.288,832.422,113.002,832.422,100.653
		z M873.927,104.966V81.314l-4.462,0.297c-6.545,0.445-9.074,3.569-9.074,13.984c0,10.266,3.865,12.346,8.184,12.346
		C871.249,107.941,872.885,106.903,873.927,104.966z"/>
</g>
</svg>
